<?xml version="1.0" encoding="UTF-8"?>
<svg xmlns="http://www.w3.org/2000/svg" viewBox="0 0 1200 630" role="img" aria-label="Convergent Technology">
  <rect width="1200" height="630" fill="#0E0E10"/>
  <g fill="none" stroke="#26262C" stroke-width="1">
    <path d="M0 80 L1200 80 M0 160 L1200 160 M0 240 L1200 240 M0 320 L1200 320 M0 400 L1200 400 M0 480 L1200 480 M0 560 L1200 560"/>
    <path d="M80 0 L80 630 M160 0 L160 630 M240 0 L240 630 M320 0 L320 630 M400 0 L400 630 M480 0 L480 630 M560 0 L560 630 M640 0 L640 630 M720 0 L720 630 M800 0 L800 630 M880 0 L880 630 M960 0 L960 630 M1040 0 L1040 630 M1120 0 L1120 630"/>
  </g>
  <rect x="80" y="80" width="80" height="80" rx="14" fill="#D00F18"/>
  <text x="100" y="135" font-family="system-ui, -apple-system, Segoe UI, sans-serif" font-weight="700" font-size="48" fill="#FFFFFF">C</text>
  <text x="80" y="370" font-family="system-ui, -apple-system, Segoe UI, sans-serif" font-weight="700" font-size="92" fill="#F0F0F2">Convergent Technology</text>
  <text x="80" y="430" font-family="system-ui, -apple-system, Segoe UI, sans-serif" font-weight="500" font-size="32" fill="#A8A8B0" letter-spacing="6">WHERE SYSTEMS SYNC</text>
  <text x="80" y="560" font-family="system-ui, -apple-system, Segoe UI, sans-serif" font-weight="500" font-size="22" fill="#82828A">www.convergent.sa</text>
</svg>
